<?xml version="1.0" encoding="utf-8"?>
<!-- Generator: Adobe Illustrator 22.1.0, SVG Export Plug-In . SVG Version: 6.00 Build 0)  -->
<svg version="1.1" id="Layer_1" xmlns="http://www.w3.org/2000/svg" xmlns:xlink="http://www.w3.org/1999/xlink" x="0px" y="0px"
	 viewBox="0 0 377.8 95" style="enable-background:new 0 0 377.8 95;" xml:space="preserve">
<style type="text/css">
	.st0{fill:#F99F1B;}
</style>
<g>
	<g>
		<path class="st0" d="M89.6,64.7H100c2.1,0,3.6,0.1,4.6,0.3s1.9,0.5,2.7,1.1s1.5,1.3,2,2.2c0.5,0.9,0.8,1.9,0.8,3.1
			c0,1.2-0.3,2.4-1,3.4c-0.7,1-1.5,1.8-2.7,2.3c1.6,0.5,2.8,1.3,3.7,2.4s1.3,2.4,1.3,4c0,1.2-0.3,2.4-0.8,3.5
			c-0.6,1.1-1.3,2-2.3,2.7c-1,0.7-2.1,1.1-3.5,1.3c-0.9,0.1-3,0.1-6.3,0.2h-8.9V64.7z M94.8,69.1v6.1h3.5c2,0,3.3,0,3.8-0.1
			c0.9-0.1,1.6-0.4,2.1-0.9c0.5-0.5,0.8-1.2,0.8-2.1c0-0.8-0.2-1.5-0.7-2c-0.4-0.5-1.1-0.8-2-0.9c-0.5-0.1-2-0.1-4.5-0.1H94.8z
			 M94.8,79.6v7h4.9c1.9,0,3.1-0.1,3.6-0.2c0.8-0.1,1.4-0.5,1.9-1c0.5-0.6,0.7-1.3,0.7-2.2c0-0.8-0.2-1.5-0.6-2
			c-0.4-0.6-0.9-1-1.6-1.2c-0.7-0.3-2.3-0.4-4.7-0.4H94.8z"/>
		<path class="st0" d="M122.7,91V80l-9.5-15.2h6.2l6.1,10.4l6-10.4h6.1L127.9,80v11H122.7z"/>
		<path class="st0" d="M152.3,81.4v-4.4h11.3v10.5c-1.1,1.1-2.7,2-4.8,2.8c-2.1,0.8-4.2,1.2-6.4,1.2c-2.7,0-5.1-0.6-7.1-1.7
			c-2-1.2-3.6-2.8-4.6-5c-1-2.2-1.5-4.5-1.5-7c0-2.7,0.6-5.2,1.7-7.3c1.1-2.1,2.8-3.8,5-4.9c1.7-0.9,3.8-1.3,6.2-1.3
			c3.2,0,5.8,0.7,7.6,2.1c1.8,1.4,3,3.3,3.5,5.7l-5.2,1c-0.4-1.3-1.1-2.3-2.1-3.1c-1-0.7-2.3-1.1-3.8-1.1c-2.3,0-4.1,0.7-5.5,2.2
			c-1.4,1.5-2,3.7-2,6.6c0,3.1,0.7,5.5,2.1,7c1.4,1.6,3.2,2.3,5.4,2.3c1.1,0,2.2-0.2,3.3-0.6c1.1-0.4,2.1-1,2.8-1.6v-3.3H152.3z"/>
		<path class="st0" d="M180.6,81.4v-4.4h11.3v10.5c-1.1,1.1-2.7,2-4.8,2.8c-2.1,0.8-4.2,1.2-6.4,1.2c-2.7,0-5.1-0.6-7.1-1.7
			c-2-1.2-3.6-2.8-4.6-5c-1-2.2-1.5-4.5-1.5-7c0-2.7,0.6-5.2,1.7-7.3c1.1-2.1,2.8-3.8,5-4.9c1.7-0.9,3.8-1.3,6.2-1.3
			c3.2,0,5.8,0.7,7.6,2.1c1.8,1.4,3,3.3,3.5,5.7l-5.2,1c-0.4-1.3-1.1-2.3-2.1-3.1c-1-0.7-2.3-1.1-3.8-1.1c-2.3,0-4.1,0.7-5.5,2.2
			c-1.4,1.5-2,3.7-2,6.6c0,3.1,0.7,5.5,2.1,7c1.4,1.6,3.2,2.3,5.4,2.3c1.1,0,2.2-0.2,3.3-0.6c1.1-0.4,2.1-1,2.8-1.6v-3.3H180.6z"/>
		<path class="st0" d="M196.8,91V64.7h19.3v4.5H202V75h13.1v4.4H202v7.2h14.6V91H196.8z"/>
		<path class="st0" d="M221,91V64.7h7.9l4.7,18l4.7-18h7.9V91h-4.9V70.3L236.1,91H231l-5.2-20.7V91H221z"/>
		<path class="st0" d="M274.9,91h-5.7l-2.3-6h-10.4l-2.2,6h-5.6l10.1-26.3h5.6L274.9,91z M265.2,80.6l-3.6-9.8l-3.5,9.8H265.2z"/>
		<path class="st0" d="M277.7,91V64.7h8.4c3.2,0,5.3,0.1,6.3,0.4c1.5,0.4,2.7,1.2,3.8,2.6c1,1.3,1.5,3,1.5,5.1c0,1.6-0.3,3-0.9,4.1
			c-0.6,1.1-1.3,2-2.2,2.6c-0.9,0.6-1.8,1-2.7,1.2c-1.3,0.3-3.1,0.4-5.5,0.4h-3.4V91H277.7z M282.9,69.2v7.5h2.9
			c2.1,0,3.5-0.1,4.2-0.4c0.7-0.3,1.2-0.7,1.6-1.3c0.4-0.6,0.6-1.3,0.6-2.1c0-0.9-0.3-1.7-0.8-2.4c-0.6-0.6-1.3-1-2.1-1.2
			c-0.6-0.1-1.9-0.2-3.8-0.2H282.9z"/>
		<path class="st0" d="M302,91V64.7h8.4c3.2,0,5.3,0.1,6.3,0.4c1.5,0.4,2.7,1.2,3.8,2.6c1,1.3,1.5,3,1.5,5.1c0,1.6-0.3,3-0.9,4.1
			c-0.6,1.1-1.3,2-2.2,2.6s-1.8,1-2.7,1.2c-1.3,0.3-3.1,0.4-5.5,0.4h-3.4V91H302z M307.2,69.2v7.5h2.9c2.1,0,3.5-0.1,4.2-0.4
			c0.7-0.3,1.2-0.7,1.6-1.3c0.4-0.6,0.6-1.3,0.6-2.1c0-0.9-0.3-1.7-0.8-2.4c-0.6-0.6-1.3-1-2.1-1.2c-0.6-0.1-1.9-0.2-3.8-0.2H307.2z
			"/>
		<path class="st0" d="M326.2,91V64.7h19.3v4.5h-14.1V75h13.1v4.4h-13.1v7.2h14.6V91H326.2z"/>
		<path class="st0" d="M350.6,91V64.7h5.1l10.7,17.6V64.7h4.9V91H366l-10.5-17.2V91H350.6z"/>
	</g>
	<g>
		<g>
			<path class="st0" d="M57.2,24.7c-10.5,0-19,8.5-19,19c0,10.5,8.5,19,19,19s19-8.5,19-19C76.2,33.2,67.7,24.7,57.2,24.7z
				 M57.1,57.9c-7.7-0.1-14-6.4-14-14.1c0-7.8,6.4-14.3,14.1-14.2c7.7,0,14.2,6.5,14.2,14.2C71.4,51.5,64.8,58,57.1,57.9z"/>
		</g>
		<g>
			<path class="st0" d="M166.4,6.7h-6.9c0,0-2.1,0-2.1,2.1v26.8L127.1,6.5c-1.7-1.6-3.7-0.2-3.7,2.1l0,27l-30.4-29
				c-1.7-1.6-3.7-0.3-3.7,2l0,9.3c0,0.1,0,0.1,0,0.2v21h-7c-2.3-11.9-12.8-20.7-24.9-20.7c-8.5,0-15.9,4-20.5,10.2H16.4V17.6h24.7
				c0,0,2.1,0,2.1-2.1V8.7c0,0,0-2.1-2.1-2.1H7.5c0,0-2.1,0-2.1,2.1v5.7v1.2v15v6.9v18.3c0,0,0,2.1,2.1,2.1h6.9c0,0,2.1,0,2.1-2.1
				V39.5h15.6c-0.2,1.3-0.3,2.7-0.4,4.1c-0.1,14.2,11,25.4,25.3,25.6c12.1,0.2,22.2-8.1,24.9-19.2h7.3v5.8c0,0,0,2.1,2.1,2.1h6.9
				c0,0,2.1,0,2.1-2.1v-27l30.3,29.1c1.7,1.6,3.9,0.5,3.9-1.8l0-27.3l30.2,29.1c1.7,1.6,3.8,0.5,3.8-1.8l0-8.8V8.7
				C168.4,8.7,168.4,6.7,166.4,6.7z M163,49.1c-0.7,0.2-1.2-0.3-1.4-0.4l-31.8-30.7v29.6c0,0.3-0.1,0.6-0.2,0.8
				c-0.2,0.3-0.4,0.5-0.6,0.6c-0.7,0.3-1.3-0.2-1.5-0.4L95.7,18v34.2c0,0.2,0,0.3-0.1,0.4c-0.1,0.4-0.5,0.6-0.9,0.6
				c-0.5,0-1-0.4-1-1v-6.9H77.9c-0.3,3-1.1,5.8-2.5,8.3c-3.6,6.4-10.4,10.7-18.1,10.7c-11.4,0-20.7-9.3-20.7-20.7c0-3,0.6-6,1.9-8.7
				H11.9v17.3c0,0.2,0,0.3-0.1,0.4c-0.1,0.4-0.5,0.6-0.9,0.6c-0.5,0-1-0.4-1-1V12.9c0-0.4,0.1-0.7,0.2-0.9c0.3-0.6,1-0.9,1.6-0.9
				h25.9c0.5,0,1,0.4,1,1c0,0.2,0,0.3-0.1,0.4c-0.1,0.4-0.5,0.6-0.9,0.6H11.9V33h27.5c3.7-6.2,10.5-10,17.8-10
				c11.3,0,20.6,9.2,20.7,20.5h15.8V16.5c0-0.1,0-0.5,0.2-0.8c0.1-0.2,0.3-0.4,0.6-0.5c0.3-0.1,0.8-0.2,1.5,0.4l31.8,30.7V16.5
				c0-0.1,0-0.5,0.2-0.8c0.1-0.2,0.3-0.4,0.6-0.5c0.3-0.1,0.8-0.2,1.5,0.4l31.8,30.7l0-34c0-0.2,0-0.3,0.1-0.4
				c0.1-0.4,0.5-0.6,0.9-0.6c0.5,0,1,0.4,1,1l0,35.6c0,0.3-0.1,0.6-0.2,0.8C163.6,48.8,163.3,49.1,163,49.1z"/>
		</g>
	</g>
</g>
</svg>
