<?xml version="1.0" encoding="utf-8"?>
<!-- Generator: Adobe Illustrator 22.1.0, SVG Export Plug-In . SVG Version: 6.00 Build 0)  -->
<svg version="1.1" id="Layer_1" xmlns="http://www.w3.org/2000/svg" xmlns:xlink="http://www.w3.org/1999/xlink" x="0px" y="0px"
	 viewBox="0 0 113.6 54.8" style="enable-background:new 0 0 113.6 54.8;" xml:space="preserve">
<style type="text/css">
	.st0{fill:#EE4E9B;}
</style>
<g>
	<path class="st0" d="M104.2,33.7c0,0-8.8,10.3-9,7.7c-0.2-2.6,2.9-6,1-10.2c-3-6.7-9-2.5-9-2.5s-0.3,2.3-0.4,3.3
		c0,0.9-4.4,6.1-8.5,7.9c-3.7,1.6-8,0.5-5.2-3.4c2.9-4,5.4-4.5,5.9-8.7c0.3-2.5-1.1-3.3-3.5-3.3c-4.2,0.1-6.7,8.4-7.6,11.4
		c-0.9,3-10.5,12.6-8.2-4c0.7-4.7,3-7.9,4-10.9c2.2-6.7,3-10.3,1.6-11.6c-1.4-1.3-3.8,4.6-6.1,10c-1.1,2.6-1.5,6.2-2.7,6.9
		c-3.5,2.1-10.1,6.9-14.6,11.8s-14.5,4.4-9.9-3.1c6.5-10.4,14.5-31.4,6.2-27c-7.3,3.9-10.5,25.2-10.8,26.2c-1,3-7.4,10.1-8,3.5
		c-0.9-10.6-4.8-5.4-6.3-4.1c-1,0.9-6.9,4.8-2.6,6.2c0,0,3.7-4.2,4.1-1.5c1.1,5.9,2.9,5.7,6.8,5.8c4,0.2,4.9-7.7,6.1-2.8
		c1.2,4.9,5.2,4.8,7.9,4.6c3.1-0.2,5.8-6.4,6.1-3c-0.5,4-0.5,5.8,0.6,5.8c2.6,0,5.8-2.9,6.7-3.9c1.5-1.7,6.4-8.4,6.4-5.4
		c0,3,4.6,6.3,6.7,5.7c1.6-0.5,4.9-4.5,6.2-4.8c1.3-0.3-0.5,2.1,2.8,4.2s12.3-4,14.8-8.1s4.8-3.9,6.1-1c1.3,3-2.6,9.9-1.2,12.1
		c1.4,2.2,9.4-5.4,12.6-7.9C106.5,37.1,104.2,33.7,104.2,33.7z M33,24.7c3.9-10.7,4.7-8.3,4.6-6.3c-0.1,1.8-1.3,4.3-2.2,6.5
		C34.7,26.4,29.1,35.5,33,24.7z M55.4,32.2c-0.4,1-6.4,12-8.7,9.8s5.1-10.1,8.4-11.3C55.9,30.4,55.6,31.8,55.4,32.2z M74.8,29
		c1.8,0.1-0.2,4.1-2.1,3.8S73.8,29,74.8,29z"/>
	<path class="st0" d="M19.3,22c-0.9,0.3-4.8,1.5-2.9-2.6s5.1-5.3,5.2-3.3S22.2,20.9,19.3,22z"/>
</g>
</svg>
